# xmcd
#
# Track frame offsets: 
#        150
#        22753
#        41260
#        60480
#        86144
#        104883
#        123932
#        143119
#        160929
#        182003
#        205254
#        225281
#        244114
#        264524
#        285102
#
# Disc length: 4044 seconds
#
# Revision: 0
# Processed by: cddbd v1.5.2PL0 Copyright (c) Steve Scherf et al.
# Submitted via: ExactAudioCopy v0.95a5
#
DISCID=bf0fca0f
DTITLE=龚h - 民歌红
DYEAR=2007
DGENRE=
TTITLE0=母亲
TTITLE1=父亲
TTITLE2=常回家看看
TTITLE3=十送红军
TTITLE4=莫愁啊莫愁
TTITLE5=美丽的草原我的家
TTITLE6=小白杨
TTITLE7=牧羊曲
TTITLE8=月亮之上
TTITLE9=天路
TTITLE10=遇上你是我的缘
TTITLE11=月亮走我也走
TTITLE12=月光下的凤尾竹
TTITLE13=为了谁
TTITLE14=月儿弯弯照九州
EXTD=
EXTT0=
EXTT1=父亲
EXTT2=
EXTT3=
EXTT4=
EXTT5=
EXTT6=
EXTT7=
EXTT8=
EXTT9=
EXTT10=
EXTT11=
EXTT12=
EXTT13=
EXTT14=
PLAYORDER=
